<svg xmlns="http://www.w3.org/2000/svg" id="Capa_2" data-name="Capa 2" viewBox="0 0 95.59 98.88"><defs><style>      .cls-1 {        fill: #80b850;      }    </style></defs><g id="Capa_1-2" data-name="Capa 1"><g><path class="cls-1" d="M46.4,58.9c2.16.07,3.97-1.63,4.04-3.79l.86-27.43c-2.86-1.87-6.14-3.14-9.67-3.66l.98,31.09c.07,2.04,1.72,3.72,3.79,3.79Z"></path><path class="cls-1" d="M46.83,65.07c-2.16-.17-4.05,1.45-4.22,3.61l-.24,3.06c2.9-.52,5.63-1.54,8.07-3v-.06c-.15-1.9-1.66-3.45-3.61-3.61Z"></path><path class="cls-1" d="M13.91,47.94c0,.32.01.63.02.94l12.91-22.36c-2.13,1.12-4.08,2.55-5.77,4.24l-6.37,11.04c-.52,1.96-.79,4.03-.79,6.15Z"></path><path class="cls-1" d="M87,82.53h-4.85l2.54,2.54h2.3c4.74,0,8.59-3.85,8.59-8.59,0-1.67-.48-3.29-1.39-4.68L55.22,4.29c-1.53-2.65-4.38-4.29-7.44-4.29s-5.91,1.65-7.44,4.29l-9.02,15.63c-12.63,3.06-22.05,14.46-22.05,28.02,0,2.82.41,5.55,1.17,8.13L1.15,72.19c-1.53,2.65-1.53,5.94,0,8.59,1.53,2.65,4.38,4.29,7.44,4.29h57.22l-2.54-2.55H8.58c-2.15,0-4.16-1.16-5.23-3.02-1.08-1.86-1.08-4.18,0-6.04l8.22-14.25c4.4,10.32,14.64,17.57,26.54,17.57,2.43,0,4.78-.31,7.04-.88.59.97,1.68,1.58,2.88,1.48,1.71-.13,2.99-1.63,2.86-3.34l-.02-.26c1.39-.69,2.72-1.48,3.97-2.37l26.07,26.07c.93.93,2.15,1.4,3.37,1.4s2.44-.47,3.38-1.4c1.86-1.86,1.86-4.88,0-6.75l-26.07-26.07c3.37-4.72,5.37-10.49,5.37-16.72,0-10.94-6.12-20.47-15.12-25.36l.05-1.45c0-.08,0-.18,0-.26-.07-2.26-1.96-4.04-4.22-3.96-1.75.06-3.2,1.21-3.73,2.78-1.88-.39-3.82-.59-5.81-.59-1.19,0-2.36.08-3.51.22l7.94-13.76c1.08-1.86,3.08-3.02,5.23-3.02s4.16,1.16,5.23,3.02l39,67.54.04.06c.65.98.99,2.13.99,3.31,0,3.33-2.71,6.04-6.04,6.04ZM64.41,47.94c0,14.52-11.77,26.29-26.29,26.29s-26.29-11.77-26.29-26.29,11.77-26.29,26.29-26.29,26.29,11.77,26.29,26.29Z"></path></g></g></svg>