<svg xmlns="http://www.w3.org/2000/svg" id="Capa_2" data-name="Capa 2" viewBox="0 0 95.11 97.22"><defs><style>      .cls-1 {        fill: #80b850;      }    </style></defs><g id="Capa_1-2" data-name="Capa 1"><g><rect class="cls-1" x="49.79" y="17.69" width="20.53" height="3.25" transform="translate(-3.03 19.98) rotate(-18.43)"></rect><rect class="cls-1" x="6.49" y="61.52" width="53.56" height="3.25"></rect><rect class="cls-1" x="6.49" y="68.01" width="53.56" height="3.25"></rect><path class="cls-1" d="M92.08,63.09l1.5-.94c.75-.47,1.27-1.2,1.45-2.07.19-.87.02-1.75-.47-2.48l-1.06-1.6c-2.37-3.56-2.37-8.15,0-11.7l.31-.46c.67-1,.73-2.27.16-3.33-.57-1.06-1.66-1.71-2.86-1.71h-14.82v-14.98l14.96-4.64c1.37-.42,2.28-1.67,2.28-3.1s-.92-2.68-2.28-3.1L50.17.22c-.98-.3-2.01-.29-2.98.03l-8.75,2.92,1.03,3.08,8.75-2.92c.32-.11.67-.11.99-.01l41.08,12.75-41.11,12.76c-.31.1-.65.1-.96,0L7.18,16.09l11.14-3.34-.93-3.11-11.14,3.34c-1.38.41-2.31,1.66-2.31,3.09,0,1.44.91,2.69,2.28,3.12l.27.08v12.57l-4.64,7.73,2.78,1.67,1.85-3.09v5.5h3.25v-5.5l1.85,3.09,2.78-1.67-4.64-7.73v-11.56l11.36,3.53v15.84c0,.79.19,1.54.53,2.21L2.24,54.32c-1.4.9-2.24,2.43-2.24,4.1v14.46c0,2.69,2.18,4.87,4.87,4.87h3.25v14.61c0,2.69,2.18,4.87,4.87,4.87h54.25c.91,0,1.81-.26,2.58-.74l23.63-14.77c.79-.49,1.32-1.29,1.48-2.21.16-.91-.09-1.85-.67-2.57-3.01-3.76-3.89-8.73-2.37-13.29l.18-.54ZM50.32,31.87l22.72-7.05v14.83c0,.71-.46,1.34-1.14,1.55l-21.58,6.75v-16.07ZM24.35,24.82l22.72,7.05v16.07l-21.58-6.75c-.68-.21-1.14-.84-1.14-1.55v-14.83ZM24.08,44.14c.14.06.29.11.44.16l22.72,7.1c.47.15.96.22,1.45.22s.98-.07,1.45-.22l22.72-7.1c1.22-.38,2.2-1.2,2.79-2.26h13.7l-21.64,12.98H7.15l16.93-10.88ZM65.25,93.98H12.98c-.89,0-1.62-.73-1.62-1.62v-14.61h53.89c-2.61,5.1-2.61,11.13,0,16.23ZM65.28,74.5H4.87c-.9,0-1.62-.73-1.62-1.62v-14.46s0-.1,0-.15h62.03c-2.61,5.1-2.61,11.13,0,16.23ZM91.73,78.96l-23.09,14.43c-2.91-4.84-2.79-10.9.36-15.63l.32-.48c.17-.08.34-.17.5-.27l18.29-11.43c-.7,4.73.57,9.57,3.62,13.38ZM68.66,73.9c-2.91-4.83-2.78-10.89.37-15.62l.29-.43,19.81-11.89c-1.26,3.93-.7,8.29,1.67,11.84l1.06,1.6-23.2,14.5Z"></path><rect class="cls-1" x="14.61" y="80.99" width="45.45" height="3.25"></rect><rect class="cls-1" x="14.61" y="87.48" width="45.45" height="3.25"></rect><path class="cls-1" d="M27.59,17.29v.41h3.25v-.41c0-3.36,2.73-6.09,6.09-6.09h.41v-3.25h-.41c-3.36,0-6.09-2.73-6.09-6.09v-.41h-3.25v.41c0,3.36-2.73,6.09-6.09,6.09h-.41v3.25h.41c3.36,0,6.09,2.73,6.09,6.09ZM29.22,7.12c.66.96,1.49,1.8,2.46,2.46-.96.66-1.8,1.49-2.46,2.46-.66-.96-1.49-1.8-2.46-2.46.96-.66,1.8-1.49,2.46-2.46Z"></path></g></g></svg>