<svg xmlns="http://www.w3.org/2000/svg" id="Capa_2" data-name="Capa 2" viewBox="0 0 105.66 89.1"><defs><style>      .cls-1 {        fill: #80b850;      }    </style></defs><g id="Capa_1-2" data-name="Capa 1"><g><path class="cls-1" d="M73.63,46.03c-.58.91-1.15,1.73-1.65,2.47-.66,1.07-1.24,1.98-1.98,3.05-4.45,6.19-10.48,18.73-8.74,28.21.41,2.31,1.32,4.29,2.56,6.02h-29.62c2.81-4.45,3.14-9.16,2.64-14.93,3.13-2.14,4.62-4.29,4.45-6.43-.08-.91-.91-1.57-1.81-1.48-.91.08-1.57.91-1.48,1.81,0,.16,0,1.81-4.54,4.45l-.25.16c-5.86,3.38-12.04,5.53-17.98,6.02-1.07.08-2.06-.16-2.72-.66-.58-.41-.99-.99-1.15-1.57-.41-1.4-.17-3.22,0-4.78.25-1.65.41-2.97-.08-4.04-.33-.82-.99-1.15-1.65-1.32.66-.66,1.24-1.4.99-2.39-.33-1.48-1.9-1.48-2.89-1.57h-.74c.08-.41.41-1.24.66-1.73.74-1.65,1.81-4.04,0-5.77-.83-.74-1.73-1.07-2.64-1.4l-.33-.08c-.17-.08-.25-.08-.41-.17-.33-.08-.74-.25-.82-.33v-.17c.5-1.07,1.32-2.14,2.23-3.3.91-1.07,1.9-2.31,2.72-3.79.17-.33.33-.58.5-.91,1.4-2.39,3.05-5.11,2.48-8-.83-4.45-.41-8.17,1.48-12.13C19.1,8,31.48,4.62,36.51,3.79c2.23-.33,4.54-.58,6.85-.58h.08c4.46,0,8.75.58,12.62,1.81.82.25,1.65.58,2.47.91,7.59,3.05,13.78,9.4,16.91,16.66h2.39c.25-.41.41-.74.66-1.15-3.47-8.17-10.31-15.26-18.73-18.64-.91-.33-1.81-.66-2.72-.99-4.12-1.15-8.66-1.81-13.53-1.81h-.08c-2.47,0-4.95.16-7.42.58-5.53.91-19.22,4.54-26.15,19.3-2.06,4.54-2.56,8.99-1.65,14.11.33,1.65-.91,3.71-2.15,5.69-.17.33-.33.58-.58.91-.74,1.24-1.57,2.31-2.48,3.38-1.07,1.32-2.06,2.56-2.72,4.12-.5,1.07-.33,2.31.25,3.22.83,1.07,1.98,1.4,2.72,1.65.08,0,.25.08.33.08l.33.08c.58.16,1.07.41,1.4.66,0,.41-.5,1.4-.74,1.98-.74,1.65-1.9,4.21.25,5.77.25.33.66.41.99.49-.25.41-.41.91-.41,1.49.08,1.9,1.98,2.31,2.8,2.47,0,.49-.08,1.24-.17,1.81-.25,1.81-.49,4.12.08,6.19.41,1.32,1.24,2.47,2.39,3.3,1.32.99,3.13,1.4,4.95,1.24,6.02-.49,12.29-2.47,18.15-5.77.33,5.44-.41,9.57-4.04,13.61-.41.5-.5,1.16-.25,1.73.25.58.82.99,1.48.99h37.12c.74,0,1.4-.49,1.57-1.15.17-.74-.08-1.48-.66-1.81-2.39-1.48-3.88-3.79-4.46-6.85-1.4-7.51,3.22-18.81,8.25-25.66.82-1.15,1.48-2.23,2.14-3.22.5-.74.99-1.57,1.57-2.39,1.4-2.06,2.56-4.37,3.3-6.85-.99-1.15-1.81-2.47-2.48-3.96-.58,3.22-1.73,6.27-3.55,8.83Z"></path><path class="cls-1" d="M102.01,21.37c-2.56-2.64-5.94-4.12-9.65-4.12-5.61,0-10.56,3.46-12.46,8.66h-28.79c-1.73.08-3.13,1.48-3.13,3.22v1.4c0,1.73,1.4,3.13,3.13,3.13h1.24v2.64c0,1.73,1.4,3.13,3.13,3.13h1.48c1.73,0,3.13-1.4,3.13-3.13v-2.72h1.81v.49c0,1.73,1.4,3.13,3.14,3.13h1.48c1.73,0,3.13-1.4,3.13-3.13v-.49h10.15c1.15,5.94,6.52,10.15,12.62,10.15.33,0,.74,0,1.07-.08,6.6-.49,11.8-5.94,12.13-12.54.17-3.63-1.07-7.09-3.63-9.73ZM93.35,40.42c-5.36.41-10.06-3.38-10.72-8.66-.08-.83-.82-1.48-1.65-1.48h-13.2c-.91,0-1.65.74-1.65,1.65v1.98h-1.07v-1.98c0-.91-.74-1.65-1.65-1.65h-5.12c-.91,0-1.65.74-1.65,1.65v4.12h-1.07v-4.12c0-.91-.74-1.65-1.65-1.65h-2.64v-.99h29.95c.74,0,1.4-.49,1.57-1.24,1.15-4.37,5.11-7.42,9.65-7.42,2.8,0,5.36,1.07,7.26,3.13,1.9,1.98,2.81,4.54,2.72,7.26-.25,4.87-4.21,8.99-9.07,9.4Z"></path><path class="cls-1" d="M92.53,23.1c-4.12,0-7.42,3.3-7.42,7.42s3.3,7.42,7.42,7.42,7.42-3.3,7.42-7.42-3.3-7.42-7.42-7.42ZM92.53,34.65c-2.31,0-4.12-1.81-4.12-4.12s1.81-4.12,4.12-4.12,4.12,1.81,4.12,4.12-1.81,4.12-4.12,4.12Z"></path><path class="cls-1" d="M40.22,30.52c0-.91-.74-1.65-1.65-1.65h-6.6c-.91,0-1.65.74-1.65,1.65s.74,1.65,1.65,1.65h6.6c.91,0,1.65-.74,1.65-1.65Z"></path><path class="cls-1" d="M43.03,21.86l-4.7-4.7c-.66-.66-1.65-.66-2.31,0-.66.66-.66,1.65,0,2.31l4.7,4.7c.33.33.74.49,1.15.49s.83-.16,1.16-.49c.66-.66.66-1.65,0-2.31Z"></path><path class="cls-1" d="M48.22,13.45v6.6c0,.91.74,1.65,1.65,1.65s1.65-.74,1.65-1.65v-6.6c0-.91-.74-1.65-1.65-1.65s-1.65.74-1.65,1.65Z"></path><path class="cls-1" d="M49.13,49.75c.91,0,1.65-.74,1.65-1.65v-6.6c0-.91-.74-1.65-1.65-1.65s-1.65.74-1.65,1.65v6.6c0,.91.74,1.65,1.65,1.65Z"></path><path class="cls-1" d="M36.92,44.47c.41,0,.82-.17,1.15-.49l4.7-4.7c.66-.66.66-1.65,0-2.31-.66-.66-1.65-.66-2.31,0l-4.7,4.7c-.66.66-.66,1.65,0,2.31.33.33.74.49,1.16.49Z"></path></g></g></svg>